<svg width="179" height="130" viewBox="0 0 179 130" fill="none" xmlns="http://www.w3.org/2000/svg">
<path d="M173.785 27.8356C174.39 28.4014 175.34 28.3696 175.906 27.7646C176.471 27.1595 176.44 26.2103 175.835 25.6444L173.785 27.8356ZM109.67 103.33L108.834 102.084L108.834 102.084L109.67 103.33ZM0.547164 128.047C0.341059 128.849 0.824434 129.667 1.62681 129.873C2.42919 130.079 3.24673 129.596 3.45284 128.793L0.547164 128.047ZM146.839 26.6784C146.027 26.839 145.498 27.628 145.658 28.4407C145.819 29.2534 146.608 29.7821 147.421 29.6216L146.839 26.6784ZM168.192 1.41752C167.871 0.654101 166.991 0.296018 166.228 0.617715C165.464 0.939411 165.106 1.81907 165.428 2.58248L168.192 1.41752ZM174.81 26.74C175.835 25.6444 175.834 25.644 175.833 25.6434C175.833 25.643 175.832 25.6422 175.831 25.6414C175.83 25.6398 175.827 25.6376 175.824 25.6348C175.818 25.6291 175.81 25.6211 175.798 25.6107C175.776 25.59 175.743 25.5599 175.701 25.5208C175.616 25.4426 175.49 25.3286 175.327 25.1819C175.001 24.8885 174.522 24.4646 173.907 23.9361C172.676 22.8794 170.897 21.4034 168.693 19.7176C164.29 16.3507 158.164 12.1243 151.308 8.73298C144.468 5.35 136.791 2.74209 129.316 2.73719C121.772 2.73224 114.471 5.38516 108.571 12.4157L110.869 14.3443C116.139 8.06485 122.559 5.73276 129.314 5.73719C136.138 5.74166 143.337 8.1375 149.977 11.422C156.601 14.6982 162.558 18.803 166.87 22.1005C169.023 23.7469 170.758 25.1864 171.952 26.2121C172.549 26.7248 173.011 27.1338 173.322 27.4131C173.477 27.5527 173.595 27.6599 173.673 27.7314C173.712 27.7672 173.741 27.794 173.76 27.8115C173.769 27.8202 173.776 27.8266 173.78 27.8307C173.782 27.8327 173.784 27.8341 173.785 27.8349C173.785 27.8353 173.785 27.8355 173.786 27.8357C173.786 27.8357 173.785 27.8356 174.81 26.74ZM108.571 12.4157C102.602 19.5287 101.893 27.5964 103.495 35.812C105.081 43.9432 108.981 52.4464 112.416 60.5493C115.901 68.769 118.904 76.5639 119.077 83.6349C119.162 87.131 118.551 90.4101 116.978 93.4575C115.404 96.5058 112.822 99.4088 108.834 102.084L110.506 104.576C114.838 101.669 117.799 98.4058 119.644 94.8338C121.488 91.2609 122.171 87.4655 122.076 83.5617C121.887 75.833 118.633 67.5273 115.178 59.3782C111.674 51.1124 107.95 42.9786 106.44 35.2377C104.946 27.5811 105.668 20.5413 110.869 14.3443L108.571 12.4157ZM108.834 102.084C100.868 107.43 91.009 109.115 80.3308 109.186C69.6234 109.257 58.3822 107.718 47.5826 106.787C36.8989 105.866 26.6216 105.539 18.2935 108.247C14.0947 109.612 10.3576 111.758 7.30876 115.003C4.26061 118.248 1.96633 122.522 0.547164 128.047L3.45284 128.793C4.76867 123.671 6.85001 119.873 9.49527 117.057C12.1398 114.242 15.4139 112.338 19.2212 111.1C26.9053 108.602 36.6199 108.853 47.3249 109.776C57.914 110.689 69.4584 112.258 80.3508 112.186C91.2722 112.113 101.827 110.4 110.506 104.576L108.834 102.084ZM147.421 29.6216C147.372 29.6312 147.446 29.6175 147.774 29.61C148.051 29.6036 148.427 29.6025 148.893 29.6061C149.823 29.6132 151.072 29.6385 152.536 29.6718C155.455 29.7382 159.213 29.836 162.902 29.8799C166.584 29.9237 170.24 29.9145 172.956 29.763C174.301 29.688 175.486 29.5748 176.345 29.3972C176.754 29.3127 177.218 29.189 177.604 28.9778C177.796 28.8726 178.084 28.6843 178.31 28.3633C178.573 27.9894 178.706 27.4896 178.577 26.9629L175.663 27.6771C175.565 27.2779 175.673 26.8987 175.855 26.6386C176.001 26.4315 176.155 26.3505 176.163 26.3462C176.18 26.3369 176.074 26.3898 175.738 26.4593C175.107 26.5897 174.106 26.6942 172.789 26.7676C170.182 26.913 166.613 26.9238 162.938 26.8801C159.27 26.8365 155.537 26.7393 152.604 26.6726C151.141 26.6393 149.872 26.6135 148.916 26.6062C148.438 26.6025 148.028 26.6034 147.705 26.6107C147.432 26.617 147.09 26.6288 146.839 26.6784L147.421 29.6216ZM178.577 26.9629C178.488 26.5986 178.24 25.9149 177.936 25.1135C177.615 24.2692 177.187 23.1829 176.69 21.945C175.697 19.4677 174.422 16.3604 173.163 13.3212C171.905 10.2812 170.662 7.30538 169.734 5.08988C169.27 3.98204 168.885 3.06413 168.615 2.4231C168.481 2.10259 168.375 1.85128 168.303 1.68006C168.267 1.59445 168.239 1.52886 168.221 1.48465C168.211 1.46255 168.204 1.44579 168.199 1.43454C168.197 1.42892 168.195 1.42467 168.194 1.42183C168.193 1.42041 168.193 1.41933 168.193 1.41862C168.193 1.41826 168.192 1.41798 168.192 1.4178C168.192 1.41761 168.192 1.41752 166.81 2C165.428 2.58248 165.428 2.58256 165.428 2.58273C165.428 2.58291 165.428 2.58316 165.428 2.58351C165.428 2.58421 165.429 2.58526 165.429 2.58665C165.431 2.58945 165.432 2.59365 165.435 2.59922C165.439 2.61037 165.446 2.62703 165.456 2.64904C165.474 2.69305 165.502 2.75843 165.538 2.84382C165.61 3.01462 165.715 3.26546 165.85 3.58549C166.119 4.22556 166.504 5.14233 166.967 6.24888C167.894 8.46212 169.135 11.4338 170.392 14.4688C171.648 17.5046 172.919 20.5998 173.906 23.0613C174.4 24.2928 174.82 25.3598 175.131 26.1792C175.459 27.0414 175.627 27.5315 175.663 27.6771L178.577 26.9629Z" fill="currentcolor"/>
</svg>
